<svg xmlns="http://www.w3.org/2000/svg" viewBox="0 0 512 512" role="img" aria-hidden="true">
  <defs>
    <linearGradient id="topFoil" x1="256" y1="61" x2="256" y2="230" gradientUnits="userSpaceOnUse">
      <stop offset="0" stop-color="#FFF8D8"/>
      <stop offset="0.45" stop-color="#F7D6A0"/>
      <stop offset="1" stop-color="#E4A95F"/>
    </linearGradient>
    <linearGradient id="topSideLeft" x1="121" y1="72" x2="164" y2="232" gradientUnits="userSpaceOnUse">
      <stop offset="0" stop-color="#C8FFF1"/>
      <stop offset="0.52" stop-color="#B8D5FF"/>
      <stop offset="1" stop-color="#D9B6FF"/>
    </linearGradient>
    <linearGradient id="topSideRight" x1="348" y1="72" x2="391" y2="232" gradientUnits="userSpaceOnUse">
      <stop offset="0" stop-color="#E7C4FF"/>
      <stop offset="0.52" stop-color="#B8D5FF"/>
      <stop offset="1" stop-color="#C8FFF1"/>
    </linearGradient>
    <radialGradient id="magicSeal" cx="50%" cy="45%" r="58%">
      <stop offset="0" stop-color="#FF9D8C"/>
      <stop offset="0.62" stop-color="#D95E57"/>
      <stop offset="1" stop-color="#AF3B3B"/>
    </radialGradient>
    <filter id="topDrop" x="-25%" y="-30%" width="150%" height="165%">
      <feDropShadow dx="0" dy="7" stdDeviation="8" flood-color="#845A32" flood-opacity="0.27"/>
    </filter>
    <filter id="sealDrop" x="-30%" y="-30%" width="160%" height="160%">
      <feDropShadow dx="0" dy="3" stdDeviation="4" flood-color="#7A2929" flood-opacity="0.35"/>
    </filter>
    <clipPath id="topClip">
      <path d="M121 88 C121 73 133 61 148 61 H364 C379 61 391 73 391 88 V171 C371 181 356 163 337 174 C318 185 303 164 283 176 C263 188 249 164 229 176 C209 187 194 166 174 178 C155 190 140 170 121 182 Z"/>
    </clipPath>
  </defs>
  <g filter="url(#topDrop)">
    <path d="M121 88 C121 73 133 61 148 61 H364 C379 61 391 73 391 88 V171 C371 181 356 163 337 174 C318 185 303 164 283 176 C263 188 249 164 229 176 C209 187 194 166 174 178 C155 190 140 170 121 182 Z" fill="url(#topFoil)"/>
    <g clip-path="url(#topClip)">
      <path d="M121 61 H164 V199 H121 Z" fill="url(#topSideLeft)" opacity="0.88"/>
      <path d="M348 61 H391 V199 H348 Z" fill="url(#topSideRight)" opacity="0.88"/>
      <path d="M132 82 H380" stroke="#C78447" stroke-width="4" stroke-linecap="round" stroke-dasharray="8 9" opacity="0.6"/>
      <path d="M132 109 H380" stroke="#FFFFFF" stroke-width="4" stroke-linecap="round" stroke-dasharray="5 12" opacity="0.42"/>
      <path d="M150 132 C184 118 219 113 256 114 C293 115 328 120 362 134" fill="none" stroke="#FFFFFF" stroke-width="5" stroke-linecap="round" opacity="0.42"/>
      <path d="M148 67 V192" stroke="#FFFFFF" stroke-width="4" stroke-linecap="round" opacity="0.32"/>
      <path d="M364 67 V186" stroke="#FFFFFF" stroke-width="4" stroke-linecap="round" opacity="0.28"/>
    </g>
    <path d="M121 182 C140 170 155 190 174 178 C194 166 209 187 229 176 C249 164 263 188 283 176 C303 164 318 185 337 174 C356 163 371 181 391 171" fill="none" stroke="#B97742" stroke-width="6" stroke-linecap="round" opacity="0.8"/>
    <path d="M121 88 C121 73 133 61 148 61 H364 C379 61 391 73 391 88 V171" fill="none" stroke="#B97742" stroke-width="5" stroke-linecap="round" opacity="0.62"/>
    <g filter="url(#sealDrop)">
      <path d="M256 126 C266 115 282 118 287 132 C301 136 304 153 293 162 C294 177 280 187 267 180 C256 191 240 188 235 174 C221 170 218 153 229 144 C228 129 243 119 256 126 Z" fill="url(#magicSeal)"/>
      <path d="M256 141 L263 153 L277 155 L267 165 L269 179 L256 172 L243 179 L245 165 L235 155 L249 153 Z" fill="#FFD7BB" opacity="0.9"/>
    </g>
  </g>
</svg>