<svg xmlns="http://www.w3.org/2000/svg" viewBox="0 0 512 512" role="img" aria-hidden="true">
  <defs>
    <linearGradient id="cardFace" x1="256" y1="108" x2="256" y2="364" gradientUnits="userSpaceOnUse">
      <stop offset="0" stop-color="#FFFDF2"/>
      <stop offset="0.52" stop-color="#FDE8A8"/>
      <stop offset="1" stop-color="#F6C878"/>
    </linearGradient>
    <linearGradient id="cardBorder" x1="190" y1="103" x2="322" y2="368" gradientUnits="userSpaceOnUse">
      <stop offset="0" stop-color="#C3F4FF"/>
      <stop offset="0.5" stop-color="#E1C6FF"/>
      <stop offset="1" stop-color="#FFE194"/>
    </linearGradient>
    <radialGradient id="rewardGlow" cx="50%" cy="43%" r="52%">
      <stop offset="0" stop-color="#FFFFFF" stop-opacity="0.96"/>
      <stop offset="0.42" stop-color="#FFEBA2" stop-opacity="0.78"/>
      <stop offset="1" stop-color="#FFD46B" stop-opacity="0"/>
    </radialGradient>
    <linearGradient id="goldStarReward" x1="256" y1="163" x2="256" y2="281" gradientUnits="userSpaceOnUse">
      <stop offset="0" stop-color="#FFF7A6"/>
      <stop offset="0.5" stop-color="#FFD65B"/>
      <stop offset="1" stop-color="#F1A640"/>
    </linearGradient>
    <filter id="cardShadow" x="-35%" y="-35%" width="170%" height="180%">
      <feDropShadow dx="0" dy="9" stdDeviation="10" flood-color="#8F6B38" flood-opacity="0.25"/>
    </filter>
    <filter id="sparkShadow" x="-40%" y="-40%" width="180%" height="180%">
      <feDropShadow dx="0" dy="2" stdDeviation="3" flood-color="#B38225" flood-opacity="0.28"/>
    </filter>
  </defs>
  <circle cx="256" cy="218" r="136" fill="url(#rewardGlow)"/>
  <path d="M194 103 H318 C333 103 345 115 345 130 V354 C345 369 333 381 318 381 H194 C179 381 167 369 167 354 V130 C167 115 179 103 194 103 Z" fill="url(#cardBorder)" filter="url(#cardShadow)"/>
  <path d="M205 119 H307 C320 119 329 128 329 141 V343 C329 356 320 365 307 365 H205 C192 365 183 356 183 343 V141 C183 128 192 119 205 119 Z" fill="url(#cardFace)"/>
  <path d="M205 119 H307 C320 119 329 128 329 141 V343" fill="none" stroke="#FFFFFF" stroke-width="5" stroke-linecap="round" opacity="0.52"/>
  <path d="M256 161 L276 206 L325 211 L288 244 L299 292 L256 267 L213 292 L224 244 L187 211 L236 206 Z" fill="url(#goldStarReward)" stroke="#ECA443" stroke-width="6" stroke-linejoin="round"/>
  <path d="M256 180 L269 210 L301 214" fill="none" stroke="#FFFFFF" stroke-width="7" stroke-linecap="round" stroke-linejoin="round" opacity="0.76"/>
  <path d="M213 316 C236 329 276 330 300 315" fill="none" stroke="#D79B52" stroke-width="5" stroke-linecap="round" opacity="0.5"/>
  <path d="M167 150 C139 151 116 136 105 112" fill="none" stroke="#C6A4FF" stroke-width="8" stroke-linecap="round" opacity="0.65"/>
  <path d="M345 156 C374 149 396 130 407 105" fill="none" stroke="#8BE8D7" stroke-width="8" stroke-linecap="round" opacity="0.65"/>
  <g filter="url(#sparkShadow)">
    <path d="M129 202 L137 219 L155 226 L137 233 L129 251 L121 233 L103 226 L121 219 Z" fill="#FFE58B"/>
    <path d="M382 223 L389 237 L404 243 L389 249 L382 264 L375 249 L360 243 L375 237 Z" fill="#FFF0A4"/>
    <path d="M361 114 L367 126 L380 131 L367 136 L361 149 L355 136 L342 131 L355 126 Z" fill="#E7D0FF"/>
  </g>
  <circle cx="144" cy="151" r="5" fill="#FFFFFF" opacity="0.82"/>
  <circle cx="386" cy="176" r="4" fill="#FFFFFF" opacity="0.72"/>
</svg>