<svg xmlns="http://www.w3.org/2000/svg" viewBox="0 0 512 512" role="img" aria-hidden="true">
  <defs>
    <linearGradient id="packBody" x1="256" y1="96" x2="256" y2="446" gradientUnits="userSpaceOnUse">
      <stop offset="0" stop-color="#FFF3C9"/>
      <stop offset="0.48" stop-color="#F7D3A5"/>
      <stop offset="1" stop-color="#E8B978"/>
    </linearGradient>
    <linearGradient id="sideFoilLeft" x1="121" y1="120" x2="162" y2="431" gradientUnits="userSpaceOnUse">
      <stop offset="0" stop-color="#C9F2EC"/>
      <stop offset="0.48" stop-color="#BFD8FF"/>
      <stop offset="1" stop-color="#E0C2FF"/>
    </linearGradient>
    <linearGradient id="sideFoilRight" x1="350" y1="120" x2="391" y2="431" gradientUnits="userSpaceOnUse">
      <stop offset="0" stop-color="#E7C9FF"/>
      <stop offset="0.5" stop-color="#BFD8FF"/>
      <stop offset="1" stop-color="#C9F2EC"/>
    </linearGradient>
    <linearGradient id="innerGlow" x1="256" y1="158" x2="256" y2="288" gradientUnits="userSpaceOnUse">
      <stop offset="0" stop-color="#FFFDF2"/>
      <stop offset="1" stop-color="#F5C970"/>
    </linearGradient>
    <filter id="softPackShadow" x="-22%" y="-18%" width="144%" height="150%">
      <feDropShadow dx="0" dy="10" stdDeviation="12" flood-color="#94683B" flood-opacity="0.24"/>
    </filter>
    <clipPath id="bodyClip">
      <path d="M121 123 C121 108 133 96 148 96 H364 C379 96 391 108 391 123 V420 C391 435 379 447 364 447 H148 C133 447 121 435 121 420 Z"/>
    </clipPath>
  </defs>
  <g filter="url(#softPackShadow)">
    <path d="M121 123 C121 108 133 96 148 96 H364 C379 96 391 108 391 123 V420 C391 435 379 447 364 447 H148 C133 447 121 435 121 420 Z" fill="url(#packBody)"/>
    <g clip-path="url(#bodyClip)">
      <path d="M121 111 H164 V447 H121 Z" fill="url(#sideFoilLeft)" opacity="0.86"/>
      <path d="M348 111 H391 V447 H348 Z" fill="url(#sideFoilRight)" opacity="0.86"/>
      <path d="M121 173 C140 161 155 180 174 168 C194 156 209 177 229 166 C249 154 263 178 283 166 C303 154 318 177 338 166 C358 155 373 176 391 164 V447 H121 Z" fill="#F4C987" opacity="0.96"/>
      <path d="M121 174 C140 162 155 181 174 169 C194 157 209 178 229 167 C249 155 263 179 283 167 C303 155 318 178 338 167 C358 156 373 177 391 165" fill="none" stroke="#C98E4D" stroke-width="5" stroke-linecap="round" opacity="0.72"/>
      <path d="M158 179 C190 206 221 218 256 218 C291 218 322 206 354 179 L354 377 C354 390 344 400 331 400 H181 C168 400 158 390 158 377 Z" fill="url(#innerGlow)" opacity="0.95"/>
      <path d="M178 202 C202 220 228 228 256 228 C284 228 310 220 334 202" fill="none" stroke="#E1A35B" stroke-width="4" stroke-linecap="round" opacity="0.46"/>
      <path d="M147 405 H365 V447 H147 Z" fill="#E3A863" opacity="0.82"/>
      <path d="M139 409 H373" stroke="#C68446" stroke-width="4" stroke-linecap="round" stroke-dasharray="7 10" opacity="0.55"/>
      <path d="M148 116 V448" stroke="#FFFFFF" stroke-width="4" stroke-linecap="round" opacity="0.3"/>
      <path d="M364 116 V448" stroke="#FFFFFF" stroke-width="4" stroke-linecap="round" opacity="0.26"/>
      <g opacity="0.35" fill="#FFFFFF">
        <circle cx="142" cy="151" r="4"/>
        <circle cx="143" cy="232" r="3"/>
        <circle cx="371" cy="196" r="4"/>
        <circle cx="368" cy="306" r="3"/>
      </g>
      <g opacity="0.35" fill="#9B69C8">
        <path d="M139 282 L145 293 L157 298 L145 303 L139 315 L133 303 L121 298 L133 293 Z"/>
        <path d="M373 246 L379 257 L391 262 L379 267 L373 279 L367 267 L355 262 L367 257 Z"/>
      </g>
    </g>
    <path d="M121 123 C121 108 133 96 148 96 H364 C379 96 391 108 391 123 V420 C391 435 379 447 364 447 H148 C133 447 121 435 121 420 Z" fill="none" stroke="#C4874D" stroke-width="5" stroke-linejoin="round" opacity="0.62"/>
  </g>
</svg>